# xmcd
#
# Track frame offsets:
#	150
#	4120
#	25074
#	44683
#	60955
#	78348
#	109213
#	131855
#	152415
#	175210
#
# Disc length: 2721 seconds
#
# Revision: 1
# Processed by: cddbd v1.5.2PL0 Copyright (c) Steve Scherf et al.
# Submitted via: audiograbber 1.83.01
#
DISCID=760a9f0a
DTITLE=Scissor Sisters - Live At Trafalgar Square
DYEAR=2006
DGENRE=Pop
TTITLE0=Introduction
TTITLE1=Take Your Mama
TTITLE2=Land Of A Thousand Words
TTITLE3=Laura
TTITLE4=Lights
TTITLE5=She's My Man
TTITLE6=Kiss You Off
TTITLE7=Everyboody Wants The Same Thing
TTITLE8=I Don't Feel Like Dancin'
TTITLE9=Filthy Gorgeus
EXTD=
EXTT0=
EXTT1=
EXTT2=
EXTT3=
EXTT4=
EXTT5=
EXTT6=
EXTT7=
EXTT8=
EXTT9=
PLAYORDER=
